<?xml version="1.0" encoding="UTF-8"?>
<svg id="Layer_1" xmlns="http://www.w3.org/2000/svg" version="1.1" viewBox="0 0 1728 1384.56">
  <!-- Generator: Adobe Illustrator 30.3.0, SVG Export Plug-In . SVG Version: 2.1.3 Build 182)  -->
  <defs>
    <style>
      .st0 {
        fill: #fff;
      }
    </style>
  </defs>
  <path class="st0" d="M278.15,724.68c-2.04-4.12-11.43-7.4-15.3-7.37l-29.87.2.37,154.46c.03,13.54,3.56,27.5,7.91,39.67,7.08,19.79,22.04,32.46,41.23,40.18l-.14,28.42-228.42-.05-.2-28.01,22.61-13.81c16.15-16.21,24.62-40.62,24.63-65.13l.22-397.41c0-15.67-4.22-31.18-9.71-44.43-6.77-16.35-20.76-24.41-37.01-30.72l.18-29.28,233.56-.25,53.06,1.35c39.87,3.85,77.81,15.27,110.48,38.51,77.01,54.79,78.64,182.24,4.09,246.91-16.74,14.52-34.03,24.28-55.06,34.08l26.63,49.48,56.32,106.63,27.57,50.33c8.03,14.66,18.9,28.56,32.64,38.56l26.71,13.66.02,29.55-166.28-.07-5.53-11.44-62.39-126.23-58.32-117.82ZM361.18,483.75c-6.45-24.12-20.91-44.22-41.94-57.47-20.07-12.64-43-13.96-66.66-13.21-4.23.13-11.2.54-13.72,2.59s-5.74,8.32-5.75,12.47l-.14,243.08,40.98-.42c21.68-3.54,42.83-11.44,58.38-26.71,38.52-37.81,42.72-108.45,28.85-160.34Z"/>
  <path class="st0" d="M1607.82,933.25c-48.31,44.94-122.12,64.5-187.27,59.77-48.64-3.53-94.57-18.38-133.24-47.61-36.44-27.55-58.42-65.32-73.31-107.91-9.3-26.6-11.71-53.78-11.62-82.26.29-90.78,50.7-171.47,135.9-204.73,30.92-12.07,62.33-17.58,95.91-19.13,25.41-1.17,50.25,2.74,75.6,8.79,35.77,8.54,69.05,25.55,96.83,50.06,30.95,27.3,51.4,63.3,61.78,103.12,12.26,46.99,13.63,94.85-.52,141.04-11.71,38.22-31.19,72-60.06,98.86ZM1522.59,911.75c15.74-25.32,24.16-53.36,25.36-84.16,2.98-76.24-19.27-178.98-80.7-229.25-26.86-21.98-67.77-24.34-94.34-1.22-26.6,23.14-38.06,57.29-41.5,91.66-6.07,60.61,7,122.32,33.54,176.64,13.32,27.26,31.1,50.41,56.83,66.65,34.9,22.02,81.31,11.06,100.81-20.32Z"/>
  <path class="st0" d="M900.34,662.7l-116.65,309.1c-11.85,31.41-24.08,60.44-40.26,89.23-8.1,14.42-18.62,26.12-29.75,37.87-23.68,25-54.73,37.09-89.28,36.72-48.46-.52-83.36-39.09-75.81-84.03,3.88-23.08,19.11-41.3,42.01-45.63,18.41-3.48,33.57,5.75,41.59,22.09,4.7,9.57,10.99,19.49,20.06,25.48,10.9,7.2,27.24,5.72,37.13-2.63,11.62-9.81,19.85-22.8,25.11-36.78l14.41-38.32-39.01-97.13-58.88-149.91-42.08-104.79c-10.17-25.32-28.87-43.01-53.78-54.02l-.06-27.55,211.39.06,1.11,27.91c-9.37,4.3-21.24,8.09-26.63,16.75-9.68,15.54-6.05,35.33-.1,51.52l20.43,55.57,48.47,124.17,18.31-46.83,21.18-56.02,22.07-61.5c6.83-19.05,11.79-40.15,5.46-59.83-4.11-12.76-22.38-20.08-34.3-25.34v-26.45l150.39.11-.69,28.92c-13.47,5.27-24.6,10.81-32.95,21.43-16.67,21.21-28.85,43.29-38.87,69.84Z"/>
  <path class="st0" d="M960.55,951.1c14.28-6.91,25.76-14.3,32.79-27.85,5.25-10.1,10.11-23.17,10.31-34.88l1.08-62.21-.22-346.96c-.02-33.37-8.38-60.31-41.77-68.71l-.22-27.34,151.29-57.07c7.12-2.69,17.44,8.7,17.44,16.43l.2,533.58c0,14.52,4.52,28.41,9.39,40.57,6.67,16.64,19.07,27.28,35.89,34.23l.3,29.35-215.92-.09-.56-29.04Z"/>
</svg>